# xmcd CD database file
#
# Track frame offsets:
#	150
#	18437
#	39265
#	54935
#	71165
#	87427
#	105720
#	121620
#	136257
#	156352
#	175495
#	192862
#	223270
#
# Disc length: 4305 seconds
#
# Revision: 1
# Processed by: cddbd v1.5.1PL0 Copyright (c) Steve Scherf et al.
# Submitted via: CDex 1.51
#
DISCID=b310cf0d
DTITLE=Aki Sirkesalo - Enkeleit‰ Onko Heit‰
DYEAR=2001
DGENRE=Soul
TTITLE0=Senat Sakaisin
TTITLE1=Enkeleit‰ Onko Heit‰
TTITLE2=Helena
TTITLE3=Tule Mun Luo
TTITLE4=Hehkuvaa Laavaa
TTITLE5=Kitara
TTITLE6=Jouten
TTITLE7=Sikamakee
TTITLE8=Talismaani
TTITLE9=Laihat Lauseet
TTITLE10=Suu Selitt‰‰
TTITLE11=Enkeleit‰...
TTITLE12=(data track)
EXTD=YEAR: 2001
EXTT0=
EXTT1=
EXTT2=
EXTT3=
EXTT4=
EXTT5=
EXTT6=
EXTT7=
EXTT8=
EXTT9=
EXTT10=
EXTT11=
EXTT12=
PLAYORDER=
